  0
SECTION
  2
HEADER
  9
$ACADVER
  1
AC1032
  9
$DWGCODEPAGE
  3
ANSI_949
  9
$INSUNITS
 70
     1
  9
$HANDSEED
  5
229
  0
ENDSEC
  0
SECTION
  2
TABLES
  0
TABLE
  2
LAYER
  5
2
330
0
100
AcDbSymbolTable
 70
     1
  0
LAYER
  5
10
330
2
100
AcDbSymbolTableRecord
100
AcDbLayerTableRecord
  2
0
 70
     0
 62
     7
  6
Continuous
370
    -3
390
F
  0
LAYER
  5
200
330
2
100
AcDbSymbolTableRecord
100
AcDbLayerTableRecord
  2
신규손상
 70
     0
 62
     1
  6
Continuous
370
    -3
390
F
  0
LAYER
  5
201
330
2
100
AcDbSymbolTableRecord
100
AcDbLayerTableRecord
  2
사진번호
 70
     0
 62
     2
  6
Continuous
370
    -3
390
F
  0
LAYER
  5
202
330
2
100
AcDbSymbolTableRecord
100
AcDbLayerTableRecord
  2
손상물량표
 70
     0
 62
     7
  6
Continuous
370
    -3
390
F
  0
ENDTAB
  0
TABLE
  2
BLOCK_RECORD
  5
1
330
0
100
AcDbSymbolTable
 70
     3
  0
BLOCK_RECORD
  5
1F
330
1
100
AcDbSymbolTableRecord
100
AcDbBlockTableRecord
  2
*Model_Space
 70
     0
  0
BLOCK_RECORD
  5
30
330
1
100
AcDbSymbolTableRecord
100
AcDbBlockTableRecord
  2
망도틀
 70
     0
  0
BLOCK_RECORD
  5
31
330
1
100
AcDbSymbolTableRecord
100
AcDbBlockTableRecord
  2
*TX
 70
     1
  0
ENDTAB
  0
ENDSEC
  0
SECTION
  2
BLOCKS
  0
BLOCK
  5
40
330
1F
100
AcDbEntity
  8
0
100
AcDbBlockBegin
  2
*Model_Space
 70
     0
 10
0.0
 20
0.0
 30
0.0
  3
*Model_Space
  1

  0
ENDBLK
  5
41
330
1F
100
AcDbEntity
  8
0
100
AcDbBlockEnd
  0
BLOCK
  5
50
330
30
100
AcDbEntity
  8
0
100
AcDbBlockBegin
  2
망도틀
 70
     0
 10
0.0
 20
0.0
 30
0.0
  3
망도틀
  1

  0
LINE
  5
53
330
30
100
AcDbEntity
  8
0
100
AcDbLine
 10
0.0
 20
0.0
 30
0.0
 11
2000.0
 21
2000.0
 31
0.0
  0
ENDBLK
  5
52
330
30
100
AcDbEntity
  8
0
100
AcDbBlockEnd
  0
BLOCK
  5
60
330
31
100
AcDbEntity
  8
0
100
AcDbBlockBegin
  2
*TX
 70
     1
 10
0.0
 20
0.0
 30
0.0
  3
*TX
  1

  0
MTEXT
  5
61
330
31
100
AcDbEntity
  8
0
100
AcDbMText
 10
570.0
 20
-20.0
 30
0.0
 40
10.0
 71
     5
  1
{\f굴림|b0|i0|c129|p2;손상물량}표
  0
MTEXT
  5
62
330
31
100
AcDbEntity
  8
0
100
AcDbMText
 10
50.0
 20
-50.0
 30
0.0
 40
10.0
 71
     5
  1
{\f굴림|b0|i0|c129|p2;번}호
  0
MTEXT
  5
63
330
31
100
AcDbEntity
  8
0
100
AcDbMText
 10
175.0
 20
-50.0
 30
0.0
 40
10.0
 71
     5
  1
{\f굴림|b0|i0|c129|p2;손상위}치
  0
MTEXT
  5
64
330
31
100
AcDbEntity
  8
0
100
AcDbMText
 10
400.0
 20
-50.0
 30
0.0
 40
10.0
 71
     5
  1
{\f굴림|b0|i0|c129|p2;손상현}황
  0
MTEXT
  5
65
330
31
100
AcDbEntity
  8
0
100
AcDbMText
 10
610.0
 20
-50.0
 30
0.0
 40
10.0
 71
     5
  1
가로/폭
  0
MTEXT
  5
66
330
31
100
AcDbEntity
  8
0
100
AcDbMText
 10
730.0
 20
-50.0
 30
0.0
 40
10.0
 71
     5
  1
세로/길이
  0
MTEXT
  5
67
330
31
100
AcDbEntity
  8
0
100
AcDbMText
 10
840.0
 20
-50.0
 30
0.0
 40
10.0
 71
     5
  1
개소
  0
MTEXT
  5
68
330
31
100
AcDbEntity
  8
0
100
AcDbMText
 10
960.0
 20
-50.0
 30
0.0
 40
10.0
 71
     5
  1
면적/연장
  0
MTEXT
  5
69
330
31
100
AcDbEntity
  8
0
100
AcDbMText
 10
1085.0
 20
-50.0
 30
0.0
 40
10.0
 71
     5
  1
단위
  0
MTEXT
  5
6A
330
31
100
AcDbEntity
  8
0
100
AcDbMText
 10
50.0
 20
-70.0
 30
0.0
 40
10.0
 71
     5
  1
1
  0
MTEXT
  5
6B
330
31
100
AcDbEntity
  8
0
100
AcDbMText
 10
50.0
 20
-90.0
 30
0.0
 40
10.0
 71
     5
  1
2
  0
MTEXT
  5
6C
330
31
100
AcDbEntity
  8
0
100
AcDbMText
 10
50.0
 20
-110.0
 30
0.0
 40
10.0
 71
     5
  1
3
  0
LINE
  5
70
330
31
100
AcDbEntity
  8
0
100
AcDbLine
 10
0.0
 20
0.0
 30
0.0
 11
1140.0
 21
0.0
 31
0.0
  0
LINE
  5
71
330
31
100
AcDbEntity
  8
0
100
AcDbLine
 10
0.0
 20
-40.0
 30
0.0
 11
1140.0
 21
-40.0
 31
0.0
  0
LINE
  5
72
330
31
100
AcDbEntity
  8
0
100
AcDbLine
 10
0.0
 20
-60.0
 30
0.0
 11
1140.0
 21
-60.0
 31
0.0
  0
LINE
  5
73
330
31
100
AcDbEntity
  8
0
100
AcDbLine
 10
0.0
 20
-120.0
 30
0.0
 11
1140.0
 21
-120.0
 31
0.0
  0
LINE
  5
74
330
31
100
AcDbEntity
  8
0
100
AcDbLine
 10
0.0
 20
0.0
 30
0.0
 11
0.0
 21
-120.0
 31
0.0
  0
LINE
  5
75
330
31
100
AcDbEntity
  8
0
100
AcDbLine
 10
1140.0
 20
0.0
 30
0.0
 11
1140.0
 21
-120.0
 31
0.0
  0
MTEXT
  5
217
330
31
100
AcDbEntity
  8
0
 62
     0
100
AcDbMText
 10
400.0
 20
-70.0
 30
0.0
 40
10.0
 41
300.0
 46
0.0
 71
     5
 72
     5
  1
균열(0.3mm미만)
 73
     1
 44
1.0
  0
MTEXT
  5
218
330
31
100
AcDbEntity
  8
0
 62
     0
100
AcDbMText
 10
610.0
 20
-70.0
 30
0.0
 40
10.0
 41
120.0
 46
0.0
 71
     5
 72
     5
  1
0.20
 73
     1
 44
1.0
  0
MTEXT
  5
219
330
31
100
AcDbEntity
  8
0
 62
     0
100
AcDbMText
 10
730.0
 20
-70.0
 30
0.0
 40
10.0
 41
120.0
 46
0.0
 71
     5
 72
     5
  1
5.00
 73
     1
 44
1.0
  0
MTEXT
  5
21A
330
31
100
AcDbEntity
  8
0
 62
     0
100
AcDbMText
 10
840.0
 20
-70.0
 30
0.0
 40
10.0
 41
100.0
 46
0.0
 71
     5
 72
     5
  1
1
 73
     1
 44
1.0
  0
MTEXT
  5
21B
330
31
100
AcDbEntity
  8
0
 62
     0
100
AcDbMText
 10
960.0
 20
-70.0
 30
0.0
 40
10.0
 41
140.0
 46
0.0
 71
     5
 72
     5
  1
5.00
 73
     1
 44
1.0
  0
MTEXT
  5
21C
330
31
100
AcDbEntity
  8
0
 62
     0
100
AcDbMText
 10
1085.0
 20
-70.0
 30
0.0
 40
10.0
 41
110.0
 46
0.0
 71
     5
 72
     5
  1
m
 73
     1
 44
1.0
  0
MTEXT
  5
21D
330
31
100
AcDbEntity
  8
0
 62
     0
100
AcDbMText
 10
400.0
 20
-90.0
 30
0.0
 40
10.0
 41
300.0
 46
0.0
 71
     5
 72
     5
  1
박락
 73
     1
 44
1.0
  0
MTEXT
  5
21E
330
31
100
AcDbEntity
  8
0
 62
     0
100
AcDbMText
 10
610.0
 20
-90.0
 30
0.0
 40
10.0
 41
120.0
 46
0.0
 71
     5
 72
     5
  1
0.50
 73
     1
 44
1.0
  0
MTEXT
  5
21F
330
31
100
AcDbEntity
  8
0
 62
     0
100
AcDbMText
 10
730.0
 20
-90.0
 30
0.0
 40
10.0
 41
120.0
 46
0.0
 71
     5
 72
     5
  1
2.00
 73
     1
 44
1.0
  0
MTEXT
  5
220
330
31
100
AcDbEntity
  8
0
 62
     0
100
AcDbMText
 10
840.0
 20
-90.0
 30
0.0
 40
10.0
 41
100.0
 46
0.0
 71
     5
 72
     5
  1
3
 73
     1
 44
1.0
  0
MTEXT
  5
221
330
31
100
AcDbEntity
  8
0
 62
     0
100
AcDbMText
 10
960.0
 20
-90.0
 30
0.0
 40
10.0
 41
140.0
 46
0.0
 71
     5
 72
     5
  1
3.00
 73
     1
 44
1.0
  0
MTEXT
  5
222
330
31
100
AcDbEntity
  8
0
 62
     0
100
AcDbMText
 10
1085.0
 20
-90.0
 30
0.0
 40
10.0
 41
110.0
 46
0.0
 71
     5
 72
     5
  1
㎡
 73
     1
 44
1.0
  0
MTEXT
  5
223
330
31
100
AcDbEntity
  8
0
 62
     0
100
AcDbMText
 10
400.0
 20
-110.0
 30
0.0
 40
10.0
 41
300.0
 46
0.0
 71
     5
 72
     5
  1
균열/백태(0.3mm이상)
 73
     1
 44
1.0
  0
MTEXT
  5
224
330
31
100
AcDbEntity
  8
0
 62
     0
100
AcDbMText
 10
610.0
 20
-110.0
 30
0.0
 40
10.0
 41
120.0
 46
0.0
 71
     5
 72
     5
  1
0.40
 73
     1
 44
1.0
  0
MTEXT
  5
225
330
31
100
AcDbEntity
  8
0
 62
     0
100
AcDbMText
 10
730.0
 20
-110.0
 30
0.0
 40
10.0
 41
120.0
 46
0.0
 71
     5
 72
     5
  1
1.50
 73
     1
 44
1.0
  0
MTEXT
  5
226
330
31
100
AcDbEntity
  8
0
 62
     0
100
AcDbMText
 10
840.0
 20
-110.0
 30
0.0
 40
10.0
 41
100.0
 46
0.0
 71
     5
 72
     5
  1
2
 73
     1
 44
1.0
  0
MTEXT
  5
227
330
31
100
AcDbEntity
  8
0
 62
     0
100
AcDbMText
 10
960.0
 20
-110.0
 30
0.0
 40
10.0
 41
140.0
 46
0.0
 71
     5
 72
     5
  1
3.00
 73
     1
 44
1.0
  0
MTEXT
  5
228
330
31
100
AcDbEntity
  8
0
 62
     0
100
AcDbMText
 10
1085.0
 20
-110.0
 30
0.0
 40
10.0
 41
110.0
 46
0.0
 71
     5
 72
     5
  1
m
 73
     1
 44
1.0
  0
ENDBLK
  5
76
330
31
100
AcDbEntity
  8
0
100
AcDbBlockEnd
  0
ENDSEC
  0
SECTION
  2
ENTITIES
  0
INSERT
  5
80
330
1F
100
AcDbEntity
  8
0
100
AcDbBlockReference
  2
망도틀
 10
1000.0
 20
2000.0
 30
0.0
 41
2.0
 42
2.0
 43
2.0
 50
0.0
  0
ACAD_TABLE
  5
A0
102
{ACAD_XDICTIONARY
360
FF
102
}
330
1F
100
AcDbEntity
  8
0
100
AcDbBlockReference
  2
*TX
 10
2000.0
 20
3400.0
 30
0.0
100
AcDbTable
342
88
343
31
 11
1.0
 21
0.0
 31
0.0
 90
       22
 91
        5
 92
        8
 93
       24
 94
        0
141
40.0
141
20.0
141
20.0
141
20.0
141
20.0
142
100.0
142
150.0
142
300.0
142
120.0
142
120.0
142
100.0
142
140.0
142
110.0
171
     1
172
     0
173
     0
174
     0
175
     1
176
     1
 91
        32
178
     0
 92
        0
301
CELL_VALUE
 93
        0
 90
        4
  1
손상물량표
 94
        0
302
손상물량표
304
ACVALUE_END
171
     1
172
     0
173
     0
174
     0
175
     1
176
     1
 91
        32
178
     0
 92
        0
301
CELL_VALUE
 93
        3
 90
        0
 91
        0
 94
        0
300

302

304
ACVALUE_END
171
     1
172
     0
173
     0
174
     0
175
     1
176
     1
 91
        32
178
     0
 92
        0
301
CELL_VALUE
 93
        3
 90
        0
 91
        0
 94
        0
300

302

304
ACVALUE_END
171
     1
172
     0
173
     0
174
     0
175
     1
176
     1
 91
        32
178
     0
 92
        0
301
CELL_VALUE
 93
        3
 90
        0
 91
        0
 94
        0
300

302

304
ACVALUE_END
171
     1
172
     0
173
     0
174
     0
175
     1
176
     1
 91
        32
178
     0
 92
        0
301
CELL_VALUE
 93
        3
 90
        0
 91
        0
 94
        0
300

302

304
ACVALUE_END
171
     1
172
     0
173
     0
174
     0
175
     1
176
     1
 91
        32
178
     0
 92
        0
301
CELL_VALUE
 93
        3
 90
        0
 91
        0
 94
        0
300

302

304
ACVALUE_END
171
     1
172
     0
173
     0
174
     0
175
     1
176
     1
 91
        32
178
     0
 92
        0
301
CELL_VALUE
 93
        3
 90
        0
 91
        0
 94
        0
300

302

304
ACVALUE_END
171
     1
172
     0
173
     0
174
     0
175
     1
176
     1
 91
        32
178
     0
 92
        0
301
CELL_VALUE
 93
        3
 90
        0
 91
        0
 94
        0
300

302

304
ACVALUE_END
171
     1
172
     0
173
     0
174
     0
175
     1
176
     1
 91
        32
178
     0
 92
        0
301
CELL_VALUE
 93
        0
 90
        4
  1
번호
 94
        0
302
번호
304
ACVALUE_END
171
     1
172
     0
173
     0
174
     0
175
     1
176
     1
 91
        32
178
     0
 92
        0
301
CELL_VALUE
 93
        0
 90
        4
  1
손상위치
 94
        0
302
손상위치
304
ACVALUE_END
171
     1
172
     0
173
     0
174
     0
175
     1
176
     1
 91
        32
178
     0
 92
        0
301
CELL_VALUE
 93
        0
 90
        4
  1
손상현황
 94
        0
302
손상현황
304
ACVALUE_END
171
     1
172
     0
173
     0
174
     0
175
     1
176
     1
 91
        32
178
     0
 92
        0
301
CELL_VALUE
 93
        0
 90
        4
  1
가로/폭
 94
        0
302
가로/폭
304
ACVALUE_END
171
     1
172
     0
173
     0
174
     0
175
     1
176
     1
 91
        32
178
     0
 92
        0
301
CELL_VALUE
 93
        0
 90
        4
  1
세로/길이
 94
        0
302
세로/길이
304
ACVALUE_END
171
     1
172
     0
173
     0
174
     0
175
     1
176
     1
 91
        32
178
     0
 92
        0
301
CELL_VALUE
 93
        0
 90
        4
  1
개소
 94
        0
302
개소
304
ACVALUE_END
171
     1
172
     0
173
     0
174
     0
175
     1
176
     1
 91
        32
178
     0
 92
        0
301
CELL_VALUE
 93
        0
 90
        4
  1
면적/연장
 94
        0
302
면적/연장
304
ACVALUE_END
171
     1
172
     0
173
     0
174
     0
175
     1
176
     1
 91
        32
178
     0
 92
        0
301
CELL_VALUE
 93
        0
 90
        4
  1
단위
 94
        0
302
단위
304
ACVALUE_END
171
     1
172
     0
173
     0
174
     0
175
     1
176
     1
 91
        32
178
     0
 92
        0
301
CELL_VALUE
 93
        0
 90
        1
 91
        1
 94
        0
300

302
1
304
ACVALUE_END
171
     1
172
     0
173
     0
174
     0
175
     1
176
     1
 91
        32
178
     0
 92
        0
301
CELL_VALUE
 93
        3
 90
        0
 91
        0
 94
        0
300

302

304
ACVALUE_END
171
     1
172
     0
173
     0
174
     0
175
     1
176
     1
 91
        32
178
     0
 92
        0
301
CELL_VALUE
 93
        0
 90
        4
  1
균열(0.3mm미만)
 94
        0
302
균열(0.3mm미만)
304
ACVALUE_END
171
     1
172
     0
173
     0
174
     0
175
     1
176
     1
 91
        32
178
     0
 92
        0
301
CELL_VALUE
 93
        0
 90
        4
  1
0.20
 94
        0
302
0.20
304
ACVALUE_END
171
     1
172
     0
173
     0
174
     0
175
     1
176
     1
 91
        32
178
     0
 92
        0
301
CELL_VALUE
 93
        0
 90
        4
  1
5.00
 94
        0
302
5.00
304
ACVALUE_END
171
     1
172
     0
173
     0
174
     0
175
     1
176
     1
 91
        32
178
     0
 92
        0
301
CELL_VALUE
 93
        0
 90
        4
  1
1
 94
        0
302
1
304
ACVALUE_END
171
     1
172
     0
173
     0
174
     0
175
     1
176
     1
 91
        32
178
     0
 92
        0
301
CELL_VALUE
 93
        0
 90
        4
  1
5.00
 94
        0
302
5.00
304
ACVALUE_END
171
     1
172
     0
173
     0
174
     0
175
     1
176
     1
 91
        32
178
     0
 92
        0
301
CELL_VALUE
 93
        0
 90
        4
  1
m
 94
        0
302
m
304
ACVALUE_END
171
     1
172
     0
173
     0
174
     0
175
     1
176
     1
 91
        32
178
     0
 92
        0
301
CELL_VALUE
 93
        0
 90
        1
 91
        2
 94
        0
300

302
2
304
ACVALUE_END
171
     1
172
     0
173
     0
174
     0
175
     1
176
     1
 91
        32
178
     0
 92
        0
301
CELL_VALUE
 93
        3
 90
        0
 91
        0
 94
        0
300

302

304
ACVALUE_END
171
     1
172
     0
173
     0
174
     0
175
     1
176
     1
 91
        32
178
     0
 92
        0
301
CELL_VALUE
 93
        0
 90
        4
  1
박락
 94
        0
302
박락
304
ACVALUE_END
171
     1
172
     0
173
     0
174
     0
175
     1
176
     1
 91
        32
178
     0
 92
        0
301
CELL_VALUE
 93
        0
 90
        4
  1
0.50
 94
        0
302
0.50
304
ACVALUE_END
171
     1
172
     0
173
     0
174
     0
175
     1
176
     1
 91
        32
178
     0
 92
        0
301
CELL_VALUE
 93
        0
 90
        4
  1
2.00
 94
        0
302
2.00
304
ACVALUE_END
171
     1
172
     0
173
     0
174
     0
175
     1
176
     1
 91
        32
178
     0
 92
        0
301
CELL_VALUE
 93
        0
 90
        4
  1
3
 94
        0
302
3
304
ACVALUE_END
171
     1
172
     0
173
     0
174
     0
175
     1
176
     1
 91
        32
178
     0
 92
        0
301
CELL_VALUE
 93
        0
 90
        4
  1
3.00
 94
        0
302
3.00
304
ACVALUE_END
171
     1
172
     0
173
     0
174
     0
175
     1
176
     1
 91
        32
178
     0
 92
        0
301
CELL_VALUE
 93
        0
 90
        4
  1
㎡
 94
        0
302
㎡
304
ACVALUE_END
171
     1
172
     0
173
     0
174
     0
175
     1
176
     1
 91
        32
178
     0
 92
        0
301
CELL_VALUE
 93
        0
 90
        1
 91
        3
 94
        0
300

302
3
304
ACVALUE_END
171
     1
172
     0
173
     0
174
     0
175
     1
176
     1
 91
        32
178
     0
 92
        0
301
CELL_VALUE
 93
        3
 90
        0
 91
        0
 94
        0
300

302

304
ACVALUE_END
171
     1
172
     0
173
     0
174
     0
175
     1
176
     1
 91
        32
178
     0
 92
        0
301
CELL_VALUE
 93
        0
 90
        4
  1
균열/백태(0.3mm이상)
 94
        0
302
균열/백태(0.3mm이상)
304
ACVALUE_END
171
     1
172
     0
173
     0
174
     0
175
     1
176
     1
 91
        32
178
     0
 92
        0
301
CELL_VALUE
 93
        0
 90
        4
  1
0.40
 94
        0
302
0.40
304
ACVALUE_END
171
     1
172
     0
173
     0
174
     0
175
     1
176
     1
 91
        32
178
     0
 92
        0
301
CELL_VALUE
 93
        0
 90
        4
  1
1.50
 94
        0
302
1.50
304
ACVALUE_END
171
     1
172
     0
173
     0
174
     0
175
     1
176
     1
 91
        32
178
     0
 92
        0
301
CELL_VALUE
 93
        0
 90
        4
  1
2
 94
        0
302
2
304
ACVALUE_END
171
     1
172
     0
173
     0
174
     0
175
     1
176
     1
 91
        32
178
     0
 92
        0
301
CELL_VALUE
 93
        0
 90
        4
  1
3.00
 94
        0
302
3.00
304
ACVALUE_END
171
     1
172
     0
173
     0
174
     0
175
     1
176
     1
 91
        32
178
     0
 92
        0
301
CELL_VALUE
 93
        0
 90
        4
  1
m
 94
        0
302
m
304
ACVALUE_END
  0
LINE
  5
81
330
1F
100
AcDbEntity
  8
0
100
AcDbLine
 10
0.0
 20
0.0
 30
0.0
 11
10.0
 21
10.0
 31
0.0
  0
LWPOLYLINE
  5
203
330
1F
100
AcDbEntity
  8
신규손상
 62
     1
100
AcDbPolyline
 90
        2
 70
     0
 43
0.0
 10
1500.0
 20
3000.0
 10
1700.0
 20
3000.0
  0
CIRCLE
  5
204
330
1F
100
AcDbEntity
  8
신규손상
 62
     1
100
AcDbCircle
 10
958.75
 20
3595.0
 30
0.0
 40
255.0
  0
TEXT
  5
205
330
1F
100
AcDbEntity
  8
신규손상
 62
     1
100
AcDbText
 10
958.75
 20
3595.0
 30
0.0
 40
300.0
  1
1
 72
     1
 11
958.75
 21
3595.0
 31
0.0
100
AcDbText
 73
     2
  0
TEXT
  5
206
330
1F
100
AcDbEntity
  8
신규손상
 62
     1
100
AcDbText
 10
1341.25
 20
3595.0
 30
0.0
 40
300.0
  1
0.2/5.0
 72
     0
 11
1341.25
 21
3595.0
 31
0.0
100
AcDbText
 73
     2
  0
TEXT
  5
207
330
1F
100
AcDbEntity
  8
사진번호
 62
     2
100
AcDbText
 10
1341.25
 20
3205.0
 30
0.0
 40
300.0
  1
#7523
 72
     0
 11
1341.25
 21
3205.0
 31
0.0
100
AcDbText
 73
     2
  0
LWPOLYLINE
  5
208
330
1F
100
AcDbEntity
  8
신규손상
 62
     1
100
AcDbPolyline
 90
        4
 70
     1
 43
0.0
 10
2000.0
 20
3000.0
 10
2100.0
 20
3000.0
 10
2100.0
 20
3100.0
 10
2000.0
 20
3100.0
  0
HATCH
  5
209
330
1F
100
AcDbEntity
  8
신규손상
 62
     1
100
AcDbHatch
 10
0.0
 20
0.0
 30
0.0
210
0.0
220
0.0
230
1.0
  2
ANSI37
 70
     0
 71
     0
 91
        1
 92
        7
 72
     0
 73
     1
 93
        5
 10
2000.0
 20
3000.0
 10
2100.0
 20
3000.0
 10
2100.0
 20
3100.0
 10
2000.0
 20
3100.0
 10
2000.0
 20
3000.0
 97
        0
 75
     0
 76
     1
 52
0.0
 41
60.0
 77
     0
 78
     2
 53
45.0
 43
0.0
 44
0.0
 45
-134.7038418160373
 46
134.7038418160373
 79
     0
 53
135.0
 43
0.0
 44
0.0
 45
-134.7038418160373
 46
-134.7038418160373
 79
     0
 47
0.1152036452310892
 98
        1
 10
2050.0
 20
3050.0
  0
CIRCLE
  5
20A
330
1F
100
AcDbEntity
  8
신규손상
 62
     1
100
AcDbCircle
 10
1078.75
 20
4445.0
 30
0.0
 40
255.0
  0
TEXT
  5
20B
330
1F
100
AcDbEntity
  8
신규손상
 62
     1
100
AcDbText
 10
1078.75
 20
4445.0
 30
0.0
 40
300.0
  1
2
 72
     1
 11
1078.75
 21
4445.0
 31
0.0
100
AcDbText
 73
     2
  0
TEXT
  5
20C
330
1F
100
AcDbEntity
  8
신규손상
 62
     1
100
AcDbText
 10
1461.25
 20
4445.0
 30
0.0
 40
300.0
  1
박락
 72
     0
 11
1461.25
 21
4445.0
 31
0.0
100
AcDbText
 73
     2
  0
TEXT
  5
20D
330
1F
100
AcDbEntity
  8
신규손상
 62
     1
100
AcDbText
 10
1461.25
 20
4055.0
 30
0.0
 40
300.0
  1
0.5x2.0 3EA
 72
     0
 11
1461.25
 21
4055.0
 31
0.0
100
AcDbText
 73
     2
  0
LINE
  5
20E
330
1F
100
AcDbEntity
  8
신규손상
 62
     1
100
AcDbLine
 10
2050.0
 20
3950.0
 30
0.0
 11
2050.0
 21
3100.0
 31
0.0
  0
LINE
  5
20F
330
1F
100
AcDbEntity
  8
신규손상
 62
     1
100
AcDbLine
 10
1975.0
 20
3229.903810567666
 30
0.0
 11
2050.0
 21
3100.0
 31
0.0
  0
LINE
  5
210
330
1F
100
AcDbEntity
  8
신규손상
 62
     1
100
AcDbLine
 10
2125.0
 20
3229.903810567666
 30
0.0
 11
2050.0
 21
3100.0
 31
0.0
  0
LWPOLYLINE
  5
211
330
1F
100
AcDbEntity
  8
신규손상
 62
     1
100
AcDbPolyline
 90
        2
 70
     0
 43
0.0
 10
2500.0
 20
3000.0
 10
2700.0
 20
3000.0
  0
CIRCLE
  5
212
330
1F
100
AcDbEntity
  8
신규손상
 62
     1
100
AcDbCircle
 10
2579.0
 20
3077.0
 30
0.0
 40
27.2
  0
CIRCLE
  5
213
330
1F
100
AcDbEntity
  8
신규손상
 62
     1
100
AcDbCircle
 10
3055.0
 20
3120.0
 30
0.0
 40
255.0
  0
TEXT
  5
214
330
1F
100
AcDbEntity
  8
신규손상
 62
     1
100
AcDbText
 10
3055.0
 20
3120.0
 30
0.0
 40
300.0
  1
3
 72
     1
 11
3055.0
 21
3120.0
 31
0.0
100
AcDbText
 73
     2
  0
TEXT
  5
215
330
1F
100
AcDbEntity
  8
신규손상
 62
     1
100
AcDbText
 10
3437.5
 20
3120.0
 30
0.0
 40
300.0
  1
균열/백태
 72
     0
 11
3437.5
 21
3120.0
 31
0.0
100
AcDbText
 73
     2
  0
TEXT
  5
216
330
1F
100
AcDbEntity
  8
신규손상
 62
     1
100
AcDbText
 10
3437.5
 20
2730.0
 30
0.0
 40
300.0
  1
0.4/1.5 2EA
 72
     0
 11
3437.5
 21
2730.0
 31
0.0
100
AcDbText
 73
     2
  0
ENDSEC
  0
EOF
